<svg width="46" height="40" viewBox="0 0 46 40" fill="none" xmlns="http://www.w3.org/2000/svg">
<path fill-rule="evenodd" clip-rule="evenodd" d="M23.4197 11.615C23.5533 11.4986 23.7119 11.4063 23.8865 11.3433C24.0612 11.2802 24.2484 11.2478 24.4375 11.2478C24.6266 11.2478 24.8138 11.2802 24.9884 11.3433C25.1631 11.4063 25.3217 11.4986 25.4552 11.615L34.0802 19.115C34.2141 19.2312 34.3203 19.3691 34.3928 19.521C34.4652 19.6728 34.5025 19.8356 34.5025 20C34.5025 20.1645 34.4652 20.3273 34.3928 20.4791C34.3203 20.631 34.2141 20.7689 34.0802 20.885L25.4552 28.385C25.1853 28.6198 24.8192 28.7516 24.4375 28.7516C24.0557 28.7516 23.6896 28.6198 23.4197 28.385C23.1498 28.1503 22.9982 27.832 22.9982 27.5C22.9982 27.1681 23.1498 26.8498 23.4197 26.615L31.0299 20L23.4197 13.385C23.2859 13.2689 23.1796 13.131 23.1072 12.9791C23.0347 12.8273 22.9974 12.6645 22.9974 12.5C22.9974 12.3356 23.0347 12.1728 23.1072 12.021C23.1796 11.8691 23.2859 11.7312 23.4197 11.615Z" fill="#4270C9"/>
<path fill-rule="evenodd" clip-rule="evenodd" d="M11.5 20C11.5 19.6685 11.6515 19.3505 11.921 19.1161C12.1906 18.8817 12.5563 18.75 12.9375 18.75H31.625C32.0062 18.75 32.3719 18.8817 32.6415 19.1161C32.9111 19.3505 33.0625 19.6685 33.0625 20C33.0625 20.3315 32.9111 20.6495 32.6415 20.8839C32.3719 21.1183 32.0062 21.25 31.625 21.25H12.9375C12.5563 21.25 12.1906 21.1183 11.921 20.8839C11.6515 20.6495 11.5 20.3315 11.5 20Z" fill="#4270C9"/>
</svg>
