<svg xmlns="http://www.w3.org/2000/svg" display="none">
<symbol id="arrow-right"  viewBox="0 0 46 40">
    <path fill-rule="evenodd" clip-rule="evenodd" d="M23.4197 11.615C23.5533 11.4986 23.7119 11.4063 23.8865 11.3433C24.0612 11.2802 24.2484 11.2478 24.4375 11.2478C24.6266 11.2478 24.8138 11.2802 24.9884 11.3433C25.1631 11.4063 25.3217 11.4986 25.4552 11.615L34.0802 19.115C34.2141 19.2312 34.3203 19.3691 34.3928 19.521C34.4652 19.6728 34.5025 19.8356 34.5025 20C34.5025 20.1645 34.4652 20.3273 34.3928 20.4791C34.3203 20.631 34.2141 20.7689 34.0802 20.885L25.4552 28.385C25.1853 28.6198 24.8192 28.7516 24.4375 28.7516C24.0557 28.7516 23.6896 28.6198 23.4197 28.385C23.1498 28.1503 22.9982 27.832 22.9982 27.5C22.9982 27.1681 23.1498 26.8498 23.4197 26.615L31.0299 20L23.4197 13.385C23.2859 13.2689 23.1796 13.131 23.1072 12.9791C23.0347 12.8273 22.9974 12.6645 22.9974 12.5C22.9974 12.3356 23.0347 12.1728 23.1072 12.021C23.1796 11.8691 23.2859 11.7312 23.4197 11.615Z"/>
    <path fill-rule="evenodd" clip-rule="evenodd" d="M11.5 20C11.5 19.6685 11.6515 19.3505 11.921 19.1161C12.1906 18.8817 12.5563 18.75 12.9375 18.75H31.625C32.0062 18.75 32.3719 18.8817 32.6415 19.1161C32.9111 19.3505 33.0625 19.6685 33.0625 20C33.0625 20.3315 32.9111 20.6495 32.6415 20.8839C32.3719 21.1183 32.0062 21.25 31.625 21.25H12.9375C12.5563 21.25 12.1906 21.1183 11.921 20.8839C11.6515 20.6495 11.5 20.3315 11.5 20Z" />
</symbol>

<symbol id="location" viewBox="0 0 17 17">
<g>
<g clip-path="url(#clip0)">
<path d="M8.17975 16.3485C7.83054 16.3432 7.52059 16.1573 7.35066 15.8513C7.34887 15.8481 7.34714 15.8448 7.3454 15.8416L3.48884 8.51997C2.56827 6.77228 2.62674 4.71541 3.64526 3.01784C4.64168 1.35706 6.38182 0.359651 8.30013 0.349723C8.38208 0.349283 8.46445 0.350537 8.54629 0.353471C10.4634 0.421784 12.1724 1.4717 13.1178 3.16204C14.0842 4.88982 14.0801 6.94749 13.1067 8.66638L9.02908 15.8672C9.02725 15.8704 9.02542 15.8736 9.02353 15.8768C8.8444 16.1774 8.52896 16.3538 8.17975 16.3485ZM8.40804 1.35023C8.3737 1.34971 8.33945 1.34953 8.30525 1.3497C6.73935 1.3578 5.31783 2.17373 4.50271 3.53232C3.66553 4.92771 3.61724 6.61802 4.37356 8.05388L8.19553 15.3098L12.2366 8.17361C13.0362 6.7614 13.0394 5.07041 12.2451 3.65018C11.4717 2.26744 10.0757 1.40859 8.51073 1.35283C8.47665 1.35162 8.44238 1.35075 8.40804 1.35023Z"/>
<path d="M8.3129 7.59964C7.07239 7.58076 6.07852 6.55617 6.09741 5.31566C6.11629 4.07514 7.14088 3.08128 8.38139 3.10017C9.6219 3.11905 10.6158 4.14364 10.5969 5.38415C10.578 6.62466 9.55344 7.61853 8.3129 7.59964ZM8.36617 4.10005C7.677 4.08956 7.10778 4.64171 7.09729 5.33088C7.0868 6.02005 7.63895 6.58927 8.32812 6.59976C9.01729 6.61025 9.58651 6.0581 9.597 5.36893C9.60749 4.67976 9.05534 4.11054 8.36617 4.10005Z"/>
</g>
<defs>
<clipPath id="clip0">
<rect width="16" height="16" fill="white" transform="translate(0.424194 0.228516) rotate(0.872128)"/>
</clipPath>
</defs>
</g>
</symbol>

<symbol id="money" viewBox="0 0 19 19">
    <g>
    <g clip-path="url(#clip0)">
<path d="M9.62098 18.3764C7.21727 18.3398 4.97166 17.3693 3.29785 15.6438C1.62405 13.9182 0.722417 11.6441 0.759008 9.24041C0.795599 6.83671 1.76607 4.59113 3.49158 2.91729C5.2171 1.24345 7.49125 0.341852 9.89495 0.378443C12.2987 0.415034 14.5443 1.38547 16.2181 3.11102C17.8919 4.83657 18.7935 7.11068 18.7569 9.51439C18.7203 11.9181 17.7499 14.1637 16.0243 15.8375C14.2988 17.5114 12.0247 18.4129 9.62098 18.3764ZM9.87783 1.50331C5.53604 1.43722 1.94997 4.91575 1.88388 9.25754C1.81778 13.5993 5.29631 17.1854 9.6381 17.2515C13.9799 17.3176 17.566 13.8391 17.6321 9.49727C17.6981 5.15548 14.2196 1.56941 9.87783 1.50331Z" />
<path d="M9.76652 8.81504C8.99121 8.80324 8.37004 8.16287 8.38184 7.38755C8.39364 6.61223 9.03402 5.99106 9.80933 6.00287C10.5846 6.01467 11.2058 6.65504 11.194 7.43036C11.1893 7.74096 11.4372 7.99663 11.7479 8.00135C12.0585 8.00608 12.3142 7.75809 12.3189 7.44748C12.3372 6.24524 11.5097 5.224 10.3879 4.95032L10.3975 4.32412C10.4022 4.01352 10.1542 3.75786 9.84358 3.75313C9.53294 3.7484 9.27731 3.9964 9.27258 4.307L9.26305 4.9332C8.1335 5.17261 7.27527 6.16819 7.25697 7.37043C7.23573 8.766 8.35382 9.91867 9.7494 9.93991C10.5247 9.95171 11.1459 10.5921 11.1341 11.3674C11.1223 12.1427 10.4819 12.7639 9.70659 12.7521C8.93127 12.7403 8.31011 12.0999 8.32191 11.3246C8.32664 11.014 8.07867 10.7583 7.76803 10.7536C7.4574 10.7489 7.20177 10.9969 7.19704 11.3075C7.17874 12.5097 8.00627 13.531 9.128 13.8046L9.11847 14.4308C9.11374 14.7414 9.3617 14.9971 9.67234 15.0018C9.98298 15.0066 10.2386 14.7586 10.2433 14.448L10.2529 13.8218C11.3824 13.5823 12.2407 12.5868 12.259 11.3845C12.2802 9.98895 11.1621 8.83629 9.76652 8.81504Z" />
</g>
<defs>
<clipPath id="clip0">
<rect width="18" height="18" fill="white" transform="translate(0.895996 0.241455) rotate(0.872128)"/>
</clipPath>
</defs>
    </g>
</symbol>

<symbol id="bed" viewBox="0 0 23 23">
<g>

<g clip-path="url(#clip0)">
<path d="M22.0121 15.2602L21.6684 15.255L21.7103 12.5053C21.7153 12.1408 21.5756 11.7892 21.3218 11.5275C21.068 11.2659 20.7208 11.1156 20.3563 11.1095L20.4453 5.26648C20.4504 4.90199 20.3107 4.55036 20.0569 4.28871C19.8031 4.02705 19.4559 3.87673 19.0914 3.87071L4.65555 3.65095C4.29106 3.64588 3.93943 3.78557 3.67778 4.03937C3.41612 4.29318 3.2658 4.64039 3.25978 5.00487L3.17083 10.8479C2.80634 10.8429 2.45471 10.9826 2.19306 11.2364C1.93141 11.4902 1.78109 11.8374 1.77506 12.2019L1.7332 14.9515L1.38949 14.9463C1.29834 14.9449 1.21036 14.9798 1.14492 15.0433C1.07948 15.1067 1.04194 15.1936 1.04055 15.2848L1.01962 16.6596C1.01823 16.7508 1.05312 16.8388 1.11659 16.9042C1.18007 16.9696 1.26694 17.0072 1.3581 17.0086L1.70181 17.0138L1.68088 18.3886C1.67949 18.4798 1.71437 18.5678 1.77785 18.6332C1.84133 18.6986 1.9282 18.7362 2.01936 18.7376L3.05049 18.7533C3.12993 18.7545 3.20734 18.7282 3.26953 18.6787C3.33172 18.6293 3.37484 18.5598 3.39153 18.4821L3.7022 17.0442L19.6366 17.2868L19.9034 18.7335C19.9177 18.8116 19.9587 18.8824 20.0193 18.9337C20.08 18.985 20.1566 19.0137 20.236 19.0149L21.2671 19.0306C21.3583 19.032 21.4463 18.9971 21.5117 18.9336C21.5771 18.8701 21.6147 18.7833 21.6161 18.6921L21.637 17.3173L21.9807 17.3225C22.0719 17.3239 22.1598 17.289 22.2253 17.2255C22.2907 17.162 22.3283 17.0752 22.3297 16.984L22.3506 15.6092C22.352 15.518 22.3171 15.43 22.2536 15.3646C22.1901 15.2992 22.1033 15.2616 22.0121 15.2602ZM3.9472 5.01533C3.95021 4.83309 4.02537 4.65949 4.1562 4.53258C4.28702 4.40568 4.46284 4.33584 4.64508 4.33838L19.0809 4.55813C19.2631 4.56114 19.4368 4.6363 19.5637 4.76713C19.6906 4.89795 19.7604 5.07377 19.7579 5.25601L19.6689 11.0991L18.9815 11.0886L19.0024 9.71378C19.0075 9.34929 18.8678 8.99766 18.614 8.73601C18.3602 8.47436 18.013 8.32404 17.6485 8.31801L13.524 8.25522C13.1595 8.25015 12.8079 8.38984 12.5462 8.64364C12.2846 8.89745 12.1342 9.24466 12.1282 9.60914L12.1073 10.984L11.4199 10.9735L11.4408 9.59867C11.4459 9.23418 11.3062 8.88255 11.0524 8.6209C10.7986 8.35925 10.4514 8.20893 10.0869 8.2029L5.96237 8.14012C5.59788 8.13504 5.24625 8.27473 4.9846 8.52853C4.72295 8.78234 4.57263 9.12955 4.5666 9.49403L4.54567 10.8689L3.85825 10.8584L3.9472 5.01533ZM18.315 9.70332L18.2941 11.0782L12.7947 10.9944L12.8156 9.6196C12.8187 9.43736 12.8938 9.26376 13.0246 9.13685C13.1555 9.00995 13.3313 8.94011 13.5135 8.94264L17.6381 9.00543C17.8203 9.00844 17.9939 9.0836 18.1208 9.21443C18.2477 9.34526 18.3175 9.52107 18.315 9.70332ZM10.7534 9.58821L10.7325 10.963L5.23309 10.8793L5.25402 9.50449C5.25703 9.32225 5.33219 9.14865 5.46302 9.02174C5.59385 8.89484 5.76966 8.825 5.9519 8.82754L10.0764 8.89032C10.2587 8.89334 10.4323 8.9685 10.5592 9.09932C10.6861 9.23015 10.7559 9.40596 10.7534 9.58821ZM2.46248 12.2123C2.46549 12.0301 2.54065 11.8565 2.67148 11.7296C2.80231 11.6027 2.97812 11.5328 3.16037 11.5354L20.3459 11.797C20.5281 11.8 20.7017 11.8751 20.8286 12.006C20.9555 12.1368 21.0254 12.3126 21.0228 12.4949L20.981 15.2445L2.42062 14.962L2.46248 12.2123ZM2.77911 18.0616L2.37353 18.0554L2.38923 17.0243L3.00103 17.0336L2.77911 18.0616ZM20.9339 18.3379L20.5283 18.3318L20.3378 17.2975L20.9496 17.3068L20.9339 18.3379ZM21.6475 16.6298L1.71227 16.3264L1.72274 15.639L21.6579 15.9424L21.6475 16.6298Z"/>
</g>
<defs>
<clipPath id="clip0">
<rect width="22" height="22" fill="white" transform="translate(0.927063 0.15625) rotate(0.872128)"/>
</clipPath>
</defs>

</g>

</symbol>

<symbol id="bath" viewBox="0 0 19 19">
    <g>
    <g clip-path="url(#clip0)">
<path d="M1.31684 7.75331L16.101 7.97837L16.1555 7.9792L16.2325 2.92562C16.2418 2.30961 15.7483 1.80082 15.1323 1.79144L14.6479 1.78406C14.1319 1.77621 13.6914 2.12125 13.5563 2.59544L13.6415 2.59674C14.4803 2.60951 15.1524 3.30237 15.1397 4.14125L15.1261 5.03074C15.1218 5.31276 14.8967 5.539 14.618 5.54904C14.609 5.54935 14.6 5.55013 14.5908 5.54999L11.3871 5.50122C11.0959 5.49679 10.8634 5.25711 10.8679 4.96591L10.8814 4.07642C10.8942 3.23755 11.587 2.56546 12.4259 2.57823L12.4834 2.57911C12.6415 1.52016 13.5646 0.712764 14.6639 0.729499L15.1483 0.736874C16.3458 0.755103 17.3052 1.74418 17.287 2.94167L17.2101 7.99525L18.2602 8.01124C18.5514 8.01567 18.7839 8.25535 18.7794 8.54655L18.7496 10.5078C18.7452 10.799 18.5055 11.0315 18.2143 11.0271L18.1278 11.0257L18.1082 12.313C18.0922 13.3641 17.6631 14.3137 16.9782 15.0096L17.6742 16.725C17.8149 17.0717 17.7727 17.4631 17.5613 17.772C17.3499 18.0808 17.0003 18.2618 16.6261 18.2561C16.2828 18.2509 15.9554 18.0833 15.7503 17.8079L14.5305 16.1694C14.3944 16.1816 14.2564 16.1869 14.1168 16.1848L5.20945 16.0492C5.06986 16.0471 4.93211 16.0375 4.79646 16.0212L3.52731 17.6219C3.31398 17.8909 2.98167 18.0484 2.63834 18.0432C2.26411 18.0375 1.92017 17.8459 1.71822 17.5308C1.51635 17.2157 1.48604 16.8232 1.63727 16.4808L2.38517 14.7874C1.72174 14.0711 1.32174 13.1088 1.33774 12.0577L1.35734 10.7704L1.27093 10.7691C0.979731 10.7647 0.747243 10.525 0.751676 10.2338L0.781531 8.27257C0.785964 7.98141 1.02564 7.74888 1.31684 7.75331ZM12.4098 3.63287C12.1525 3.62895 11.9399 3.83516 11.936 4.09255L11.9304 4.45476L14.0796 4.48747L14.0851 4.12526C14.089 3.86788 13.8828 3.65529 13.6254 3.65137L12.4098 3.63287ZM16.5963 17.1782C16.607 17.1926 16.6241 17.2013 16.6421 17.2016C16.6507 17.2017 16.6734 17.2021 16.691 17.1763C16.7087 17.1505 16.7001 17.1295 16.6969 17.1216L16.1103 15.6758C15.961 15.7605 15.8058 15.8358 15.6453 15.9007L16.5963 17.1782ZM2.60632 16.9619C2.62318 16.9882 2.64589 16.9885 2.65443 16.9887C2.67239 16.9889 2.68978 16.9807 2.70093 16.9667L3.69039 15.7187C3.53196 15.649 3.37914 15.5689 3.23247 15.4798L2.60209 16.907C2.59863 16.9148 2.58945 16.9355 2.60632 16.9619ZM2.39234 12.0738C2.36819 13.6602 3.63916 14.9705 5.22554 14.9947L14.1329 15.1303C15.7193 15.1544 17.0295 13.8834 17.0537 12.297L17.0733 11.0097L2.41194 10.7865L2.39234 12.0738ZM1.81427 9.72262L17.7031 9.96449L17.7169 9.05778L1.82807 8.81591L1.81427 9.72262Z"/>
</g>
<defs>
<clipPath id="clip0">
<rect width="18" height="18" fill="white" transform="matrix(-0.999884 -0.0152209 -0.0152209 0.999884 18.9013 0.54126)"/>
</clipPath>
</defs>
    </g>
</symbol>

</svg>
