<svg width="31" height="31" viewBox="0 0 31 31" fill="none" xmlns="http://www.w3.org/2000/svg">
<path d="M13.25 26.25C16.1343 26.2494 18.9356 25.2838 21.2076 23.507L28.3511 30.6505L30.6489 28.3527L23.5054 21.2092C25.2831 18.9369 26.2493 16.1351 26.25 13.25C26.25 6.08212 20.4179 0.25 13.25 0.25C6.08213 0.25 0.25 6.08212 0.25 13.25C0.25 20.4179 6.08213 26.25 13.25 26.25ZM13.25 3.5C18.6271 3.5 23 7.87287 23 13.25C23 18.6271 18.6271 23 13.25 23C7.87288 23 3.5 18.6271 3.5 13.25C3.5 7.87287 7.87288 3.5 13.25 3.5Z" fill="white"/>
</svg>
